<svg width="179" height="49" viewBox="0 0 179 49" fill="none" xmlns="http://www.w3.org/2000/svg">
<path d="M5.01282 9.07665C5.01282 7.40569 6.50902 6.0511 8.35469 6.0511H23.3931V42.3577H8.35469C6.50902 42.3577 5.01282 41.0031 5.01282 39.3322V9.07665Z" fill="#EA5959"/>
<path d="M5.01282 9.07665C5.01282 7.40569 6.50902 6.0511 8.35469 6.0511H23.3931V42.3577H8.35469C6.50902 42.3577 5.01282 41.0031 5.01282 39.3322V9.07665Z" fill="white" fill-opacity="0.4"/>
<path d="M45.1152 41.6937C46.9177 41.6972 48.4571 40.3726 48.4571 38.6671V8.22891C48.4571 6.52348 46.9177 5.19887 45.1152 5.20234V41.6937Z" fill="#EA5959"/>
<path d="M45.1152 41.6937C46.9177 41.6972 48.4571 40.3726 48.4571 38.6671V8.22891C48.4571 6.52348 46.9177 5.19887 45.1152 5.20234V41.6937Z" fill="white" fill-opacity="0.4"/>
<path d="M25.0641 6.05109L39.5047 3.67405C41.5561 3.33638 43.4444 4.76314 43.4444 6.6508V41.758C43.4444 43.6456 41.5561 45.0724 39.5047 44.7347L25.0641 42.3577V6.05109Z" fill="#EA5959"/>
<path d="M25.0641 6.05109L39.5047 3.67405C41.5561 3.33638 43.4444 4.76314 43.4444 6.6508V41.758C43.4444 43.6456 41.5561 45.0724 39.5047 44.7347L25.0641 42.3577V6.05109Z" fill="white" fill-opacity="0.02"/>
<path d="M84.1789 9.19768V14.3096H76.0942V36.3066H70.1912V14.3096H62.1493V9.19768H84.1789Z" fill="#1B1C1F"/>
<path d="M100.7 33.9055C98.5039 35.8677 95.8233 36.8488 92.6579 36.8488C89.4925 36.8488 86.8118 35.8677 84.616 33.9055C82.4487 31.9175 81.365 29.4906 81.365 26.6248C81.365 23.759 82.4487 21.3451 84.616 19.3829C86.8118 17.3949 89.4925 16.4009 92.6579 16.4009C95.8233 16.4009 98.5039 17.3949 100.7 19.3829C102.896 21.3451 103.993 23.759 103.993 26.6248C103.993 29.4906 102.896 31.9175 100.7 33.9055ZM88.5086 30.4588C89.6208 31.4657 91.0039 31.9692 92.6579 31.9692C94.3119 31.9692 95.695 31.4657 96.8071 30.4588C97.9193 29.4519 98.4754 28.1739 98.4754 26.6248C98.4754 25.0758 97.9193 23.7978 96.8071 22.7909C95.695 21.784 94.3119 21.2805 92.6579 21.2805C91.0039 21.2805 89.6208 21.784 88.5086 22.7909C87.425 23.7978 86.8831 25.0758 86.8831 26.6248C86.8831 28.1739 87.425 29.4519 88.5086 30.4588Z" fill="#1B1C1F"/>
<path d="M123.232 9.19768H128.75V36.3066H123.232V34.0217C121.606 35.9064 119.297 36.8488 116.302 36.8488C113.422 36.8488 110.955 35.8677 108.902 33.9055C106.877 31.9175 105.865 29.4906 105.865 26.6248C105.865 23.759 106.877 21.3451 108.902 19.3829C110.955 17.3949 113.422 16.4009 116.302 16.4009C119.297 16.4009 121.606 17.3433 123.232 19.228V9.19768ZM113.051 30.575C114.192 31.5819 115.618 32.0854 117.329 32.0854C119.04 32.0854 120.452 31.5819 121.564 30.575C122.676 29.5423 123.232 28.2256 123.232 26.6248C123.232 25.0241 122.676 23.7203 121.564 22.7134C120.452 21.6807 119.04 21.1643 117.329 21.1643C115.618 21.1643 114.192 21.6807 113.051 22.7134C111.939 23.7203 111.383 25.0241 111.383 26.6248C111.383 28.2256 111.939 29.5423 113.051 30.575Z" fill="#1B1C1F"/>
<path d="M151.164 33.9055C148.968 35.8677 146.287 36.8488 143.122 36.8488C139.956 36.8488 137.276 35.8677 135.08 33.9055C132.913 31.9175 131.829 29.4906 131.829 26.6248C131.829 23.759 132.913 21.3451 135.08 19.3829C137.276 17.3949 139.956 16.4009 143.122 16.4009C146.287 16.4009 148.968 17.3949 151.164 19.3829C153.359 21.3451 154.457 23.759 154.457 26.6248C154.457 29.4906 153.359 31.9175 151.164 33.9055ZM138.972 30.4588C140.085 31.4657 141.468 31.9692 143.122 31.9692C144.776 31.9692 146.159 31.4657 147.271 30.4588C148.383 29.4519 148.939 28.1739 148.939 26.6248C148.939 25.0758 148.383 23.7978 147.271 22.7909C146.159 21.784 144.776 21.2805 143.122 21.2805C141.468 21.2805 140.085 21.784 138.972 22.7909C137.889 23.7978 137.347 25.0758 137.347 26.6248C137.347 28.1739 137.889 29.4519 138.972 30.4588Z" fill="#1B1C1F"/>
<path d="M175.706 33.9055C173.51 35.8677 170.83 36.8488 167.664 36.8488C164.499 36.8488 161.818 35.8677 159.623 33.9055C157.455 31.9175 156.372 29.4906 156.372 26.6248C156.372 23.759 157.455 21.3451 159.623 19.3829C161.818 17.3949 164.499 16.4009 167.664 16.4009C170.83 16.4009 173.51 17.3949 175.706 19.3829C177.902 21.3451 179 23.759 179 26.6248C179 29.4906 177.902 31.9175 175.706 33.9055ZM163.515 30.4588C164.627 31.4657 166.01 31.9692 167.664 31.9692C169.318 31.9692 170.702 31.4657 171.814 30.4588C172.926 29.4519 173.482 28.1739 173.482 26.6248C173.482 25.0758 172.926 23.7978 171.814 22.7909C170.702 21.784 169.318 21.2805 167.664 21.2805C166.01 21.2805 164.627 21.784 163.515 22.7909C162.432 23.7978 161.89 25.0758 161.89 26.6248C161.89 28.1739 162.432 29.4519 163.515 30.4588Z" fill="#1B1C1F"/>
</svg>
