<svg width="185" height="51" viewBox="0 0 185 51" fill="none" xmlns="http://www.w3.org/2000/svg">
<path d="M5.18079 9.3809C5.18079 7.65393 6.72714 6.25394 8.63467 6.25394H24.1772V43.7775H8.63467C6.72714 43.7775 5.18079 42.3775 5.18079 40.6506V9.3809Z" fill="#EA5959"/>
<path d="M5.18079 9.3809C5.18079 7.65393 6.72714 6.25394 8.63467 6.25394H24.1772V43.7775H8.63467C6.72714 43.7775 5.18079 42.3775 5.18079 40.6506V9.3809Z" fill="white" fill-opacity="0.4"/>
<path d="M46.6274 43.0913C48.4903 43.0949 50.0813 41.7258 50.0813 39.9633V8.50475C50.0813 6.74216 48.4903 5.37315 46.6274 5.37673V43.0913Z" fill="#EA5959"/>
<path d="M46.6274 43.0913C48.4903 43.0949 50.0813 41.7258 50.0813 39.9633V8.50475C50.0813 6.74216 48.4903 5.37315 46.6274 5.37673V43.0913Z" fill="white" fill-opacity="0.4"/>
<path d="M25.9041 6.25393L40.8287 3.7972C42.9488 3.44821 44.9004 4.9228 44.9004 6.87373V43.1577C44.9004 45.1086 42.9488 46.5832 40.8287 46.2342L25.9041 43.7775V6.25393Z" fill="#EA5959"/>
<path d="M25.9041 6.25393L40.8287 3.7972C42.9488 3.44821 44.9004 4.9228 44.9004 6.87373V43.1577C44.9004 45.1086 42.9488 46.5832 40.8287 46.2342L25.9041 43.7775V6.25393Z" fill="white" fill-opacity="0.02"/>
<path d="M87.0006 9.50598V14.7893H78.6449V37.5236H72.544V14.7893H64.2325V9.50598H87.0006Z" fill="#1B1C1F"/>
<path d="M104.075 35.042C101.806 37.07 99.0353 38.0839 95.7638 38.0839C92.4922 38.0839 89.7218 37.07 87.4523 35.042C85.2124 32.9874 84.0924 30.4792 84.0924 27.5173C84.0924 24.5554 85.2124 22.0605 87.4523 20.0326C89.7218 17.978 92.4922 16.9507 95.7638 16.9507C99.0353 16.9507 101.806 17.978 104.075 20.0326C106.345 22.0605 107.479 24.5554 107.479 27.5173C107.479 30.4792 106.345 32.9874 104.075 35.042ZM91.4754 31.4798C92.6249 32.5204 94.0543 33.0408 95.7638 33.0408C97.4732 33.0408 98.9027 32.5204 100.052 31.4798C101.202 30.4391 101.776 29.1183 101.776 27.5173C101.776 25.9163 101.202 24.5955 100.052 23.5548C98.9027 22.5142 97.4732 21.9938 95.7638 21.9938C94.0543 21.9938 92.6249 22.5142 91.4754 23.5548C90.3554 24.5955 89.7954 25.9163 89.7954 27.5173C89.7954 29.1183 90.3554 30.4391 91.4754 31.4798Z" fill="#1B1C1F"/>
<path d="M127.363 9.50598H133.066V37.5236H127.363V35.1621C125.683 37.11 123.295 38.0839 120.201 38.0839C117.224 38.0839 114.674 37.07 112.552 35.042C110.46 32.9874 109.414 30.4792 109.414 27.5173C109.414 24.5554 110.46 22.0605 112.552 20.0326C114.674 17.978 117.224 16.9507 120.201 16.9507C123.295 16.9507 125.683 17.9246 127.363 19.8725V9.50598ZM116.841 31.5999C118.02 32.6405 119.493 33.1608 121.262 33.1608C123.03 33.1608 124.489 32.6405 125.638 31.5999C126.788 30.5325 127.363 29.1717 127.363 27.5173C127.363 25.8629 126.788 24.5154 125.638 23.4748C124.489 22.4074 123.03 21.8738 121.262 21.8738C119.493 21.8738 118.02 22.4074 116.841 23.4748C115.691 24.5154 115.117 25.8629 115.117 27.5173C115.117 29.1717 115.691 30.5325 116.841 31.5999Z" fill="#1B1C1F"/>
<path d="M156.231 35.042C153.961 37.07 151.191 38.0839 147.919 38.0839C144.648 38.0839 141.877 37.07 139.608 35.042C137.368 32.9874 136.248 30.4792 136.248 27.5173C136.248 24.5554 137.368 22.0605 139.608 20.0326C141.877 17.978 144.648 16.9507 147.919 16.9507C151.191 16.9507 153.961 17.978 156.231 20.0326C158.5 22.0605 159.635 24.5554 159.635 27.5173C159.635 30.4792 158.5 32.9874 156.231 35.042ZM143.631 31.4798C144.78 32.5204 146.21 33.0408 147.919 33.0408C149.629 33.0408 151.058 32.5204 152.208 31.4798C153.357 30.4391 153.932 29.1183 153.932 27.5173C153.932 25.9163 153.357 24.5955 152.208 23.5548C151.058 22.5142 149.629 21.9938 147.919 21.9938C146.21 21.9938 144.78 22.5142 143.631 23.5548C142.511 24.5955 141.951 25.9163 141.951 27.5173C141.951 29.1183 142.511 30.4391 143.631 31.4798Z" fill="#1B1C1F"/>
<path d="M181.596 35.042C179.327 37.07 176.556 38.0839 173.285 38.0839C170.013 38.0839 167.243 37.07 164.973 35.042C162.733 32.9874 161.613 30.4792 161.613 27.5173C161.613 24.5554 162.733 22.0605 164.973 20.0326C167.243 17.978 170.013 16.9507 173.285 16.9507C176.556 16.9507 179.327 17.978 181.596 20.0326C183.865 22.0605 185 24.5554 185 27.5173C185 30.4792 183.865 32.9874 181.596 35.042ZM168.996 31.4798C170.146 32.5204 171.575 33.0408 173.285 33.0408C174.994 33.0408 176.423 32.5204 177.573 31.4798C178.722 30.4391 179.297 29.1183 179.297 27.5173C179.297 25.9163 178.722 24.5955 177.573 23.5548C176.423 22.5142 174.994 21.9938 173.285 21.9938C171.575 21.9938 170.146 22.5142 168.996 23.5548C167.876 24.5955 167.316 25.9163 167.316 27.5173C167.316 29.1183 167.876 30.4391 168.996 31.4798Z" fill="#1B1C1F"/>
</svg>
