<svg width="679" height="385" viewBox="0 0 679 385" fill="none" xmlns="http://www.w3.org/2000/svg">
<rect x="1" width="119" height="30" rx="8" fill="#D9D9D9"/>
<rect x="1" y="58" width="678" height="47" rx="8" fill="#D9D9D9"/>
<rect x="1" y="137" width="28" height="28" rx="8" fill="#D9D9D9"/>
<rect x="47" y="146" width="225" height="14" rx="7" fill="#D9D9D9"/>
<rect x="47" y="190" width="310" height="14" rx="7" fill="#D9D9D9"/>
<rect x="47" y="364" width="297" height="14" rx="7" fill="#D9D9D9"/>
<rect x="47" y="234" width="164" height="14" rx="7" fill="#D9D9D9"/>
<rect x="47" y="278" width="257" height="14" rx="7" fill="#D9D9D9"/>
<rect x="46" y="322" width="370" height="14" rx="7" fill="#D9D9D9"/>
<rect x="1" y="181" width="28" height="28" rx="8" fill="#D9D9D9"/>
<rect x="1" y="225" width="28" height="28" rx="8" fill="#D9D9D9"/>
<rect x="1" y="269" width="28" height="28" rx="8" fill="#D9D9D9"/>
<rect x="1" y="313" width="28" height="28" rx="8" fill="#D9D9D9"/>
<rect y="357" width="28" height="28" rx="8" fill="#D9D9D9"/>
</svg>
