<svg width="159" height="43" viewBox="0 0 159 43" fill="none" xmlns="http://www.w3.org/2000/svg">
<path d="M4.4527 8.0625C4.4527 6.57823 5.78173 5.375 7.42117 5.375H20.7793V37.625H7.42117C5.78173 37.625 4.4527 36.4218 4.4527 34.9375V8.0625Z" fill="#EA5959"/>
<path d="M4.4527 8.0625C4.4527 6.57823 5.78173 5.375 7.42117 5.375H20.7793V37.625H7.42117C5.78173 37.625 4.4527 36.4218 4.4527 34.9375V8.0625Z" fill="white" fill-opacity="0.4"/>
<path d="M40.0744 37.0352C41.6755 37.0383 43.0429 35.8617 43.0429 34.3468V7.30949C43.0429 5.79461 41.6755 4.61801 40.0744 4.62108V37.0352Z" fill="#EA5959"/>
<path d="M40.0744 37.0352C41.6755 37.0383 43.0429 35.8617 43.0429 34.3468V7.30949C43.0429 5.79461 41.6755 4.61801 40.0744 4.62108V37.0352Z" fill="white" fill-opacity="0.4"/>
<path d="M22.2635 5.375L35.0907 3.26355C36.9128 2.9636 38.5902 4.23095 38.5902 5.9077V37.0923C38.5902 38.769 36.9128 40.0364 35.0907 39.7365L22.2635 37.625V5.375Z" fill="#EA5959"/>
<path d="M22.2635 5.375L35.0907 3.26355C36.9128 2.9636 38.5902 4.23095 38.5902 5.9077V37.0923C38.5902 38.769 36.9128 40.0364 35.0907 39.7365L22.2635 37.625V5.375Z" fill="white" fill-opacity="0.02"/>
<path d="M74.7734 8.17V12.7108H67.592V32.25H62.3485V12.7108H55.2052V8.17H74.7734Z" fill="#1B1C1F"/>
<path d="M89.4483 30.1172C87.4978 31.8601 85.1167 32.7316 82.305 32.7316C79.4932 32.7316 77.1121 31.8601 75.1616 30.1172C73.2365 28.3513 72.2739 26.1956 72.2739 23.65C72.2739 21.1044 73.2365 18.9601 75.1616 17.2172C77.1121 15.4513 79.4932 14.5684 82.305 14.5684C85.1167 14.5684 87.4978 15.4513 89.4483 17.2172C91.3988 18.9601 92.374 21.1044 92.374 23.65C92.374 26.1956 91.3988 28.3513 89.4483 30.1172ZM78.6193 27.0556C79.6072 27.95 80.8358 28.3972 82.305 28.3972C83.7742 28.3972 85.0027 27.95 85.9906 27.0556C86.9785 26.1612 87.4725 25.026 87.4725 23.65C87.4725 22.274 86.9785 21.1388 85.9906 20.2444C85.0027 19.35 83.7742 18.9028 82.305 18.9028C80.8358 18.9028 79.6072 19.35 78.6193 20.2444C77.6567 21.1388 77.1754 22.274 77.1754 23.65C77.1754 25.026 77.6567 26.1612 78.6193 27.0556Z" fill="#1B1C1F"/>
<path d="M109.463 8.17H114.365V32.25H109.463V30.2204C108.019 31.8945 105.967 32.7316 103.308 32.7316C100.749 32.7316 98.558 31.8601 96.7341 30.1172C94.9356 28.3513 94.0364 26.1956 94.0364 23.65C94.0364 21.1044 94.9356 18.9601 96.7341 17.2172C98.558 15.4513 100.749 14.5684 103.308 14.5684C105.967 14.5684 108.019 15.4055 109.463 17.0796V8.17ZM100.42 27.1588C101.433 28.0532 102.7 28.5004 104.219 28.5004C105.739 28.5004 106.993 28.0532 107.981 27.1588C108.969 26.2415 109.463 25.0719 109.463 23.65C109.463 22.2281 108.969 21.07 107.981 20.1756C106.993 19.2583 105.739 18.7996 104.219 18.7996C102.7 18.7996 101.433 19.2583 100.42 20.1756C99.4319 21.07 98.9379 22.2281 98.9379 23.65C98.9379 25.0719 99.4319 26.2415 100.42 27.1588Z" fill="#1B1C1F"/>
<path d="M134.274 30.1172C132.323 31.8601 129.942 32.7316 127.13 32.7316C124.319 32.7316 121.938 31.8601 119.987 30.1172C118.062 28.3513 117.099 26.1956 117.099 23.65C117.099 21.1044 118.062 18.9601 119.987 17.2172C121.938 15.4513 124.319 14.5684 127.13 14.5684C129.942 14.5684 132.323 15.4513 134.274 17.2172C136.224 18.9601 137.2 21.1044 137.2 23.65C137.2 26.1956 136.224 28.3513 134.274 30.1172ZM123.445 27.0556C124.433 27.95 125.661 28.3972 127.13 28.3972C128.6 28.3972 129.828 27.95 130.816 27.0556C131.804 26.1612 132.298 25.026 132.298 23.65C132.298 22.274 131.804 21.1388 130.816 20.2444C129.828 19.35 128.6 18.9028 127.13 18.9028C125.661 18.9028 124.433 19.35 123.445 20.2444C122.482 21.1388 122.001 22.274 122.001 23.65C122.001 25.026 122.482 26.1612 123.445 27.0556Z" fill="#1B1C1F"/>
<path d="M156.074 30.1172C154.124 31.8601 151.743 32.7316 148.931 32.7316C146.119 32.7316 143.738 31.8601 141.788 30.1172C139.862 28.3513 138.9 26.1956 138.9 23.65C138.9 21.1044 139.862 18.9601 141.788 17.2172C143.738 15.4513 146.119 14.5684 148.931 14.5684C151.743 14.5684 154.124 15.4513 156.074 17.2172C158.025 18.9601 159 21.1044 159 23.65C159 26.1956 158.025 28.3513 156.074 30.1172ZM145.245 27.0556C146.233 27.95 147.462 28.3972 148.931 28.3972C150.4 28.3972 151.629 27.95 152.617 27.0556C153.604 26.1612 154.098 25.026 154.098 23.65C154.098 22.274 153.604 21.1388 152.617 20.2444C151.629 19.35 150.4 18.9028 148.931 18.9028C147.462 18.9028 146.233 19.35 145.245 20.2444C144.283 21.1388 143.801 22.274 143.801 23.65C143.801 25.026 144.283 26.1612 145.245 27.0556Z" fill="#1B1C1F"/>
</svg>
